<mxfile host="65bd71144e">
    <diagram id="X4t8laDDgqchACKT4Ocz" name="Page-1">
        <mxGraphModel dx="814" dy="613" grid="1" gridSize="10" guides="1" tooltips="1" connect="1" arrows="1" fold="1" page="1" pageScale="1" pageWidth="850" pageHeight="1100" math="0" shadow="0">
            <root>
                <mxCell id="0"/>
                <mxCell id="1" parent="0"/>
                <mxCell id="18" value="" style="rounded=0;whiteSpace=wrap;html=1;" parent="1" vertex="1">
                    <mxGeometry x="150" y="80" width="260" height="470" as="geometry"/>
                </mxCell>
                <mxCell id="19" value="&lt;h1&gt;Agility Help&lt;/h1&gt;" style="rounded=0;whiteSpace=wrap;html=1;" parent="1" vertex="1">
                    <mxGeometry x="150" y="80" width="260" height="50" as="geometry"/>
                </mxCell>
                <mxCell id="31" value="&lt;p&gt;Home&lt;span style=&quot;white-space: pre&quot;&gt;&#9;&lt;/span&gt;|&lt;span style=&quot;white-space: pre&quot;&gt;&#9;&lt;/span&gt;Log in&lt;span style=&quot;white-space: pre&quot;&gt;&#9;&lt;/span&gt;|&lt;span style=&quot;white-space: pre&quot;&gt;&#9;&lt;/span&gt;Dashboard&lt;/p&gt;" style="rounded=0;whiteSpace=wrap;html=1;" parent="1" vertex="1">
                    <mxGeometry x="150" y="130" width="260" height="30" as="geometry"/>
                </mxCell>
                <mxCell id="45" value="&lt;div&gt;&lt;span&gt;Username&lt;/span&gt;&lt;/div&gt;" style="html=1;shadow=0;dashed=0;shape=mxgraph.bootstrap.rrect;rSize=5;strokeColor=#CED4DA;html=1;whiteSpace=wrap;fillColor=#FFFFFF;fontColor=#7D868C;align=left;spacing=15;spacingLeft=40;fontSize=14;" vertex="1" parent="1">
                    <mxGeometry x="180" y="190" width="210" height="31" as="geometry"/>
                </mxCell>
                <mxCell id="57" value="&lt;div&gt;&lt;span&gt;Password&lt;/span&gt;&lt;/div&gt;" style="html=1;shadow=0;dashed=0;shape=mxgraph.bootstrap.rrect;rSize=5;strokeColor=#CED4DA;html=1;whiteSpace=wrap;fillColor=#FFFFFF;fontColor=#7D868C;align=left;spacing=15;spacingLeft=40;fontSize=14;" vertex="1" parent="1">
                    <mxGeometry x="180" y="240" width="210" height="31" as="geometry"/>
                </mxCell>
                <mxCell id="58" value="Log in" style="rounded=1;html=1;shadow=0;dashed=0;whiteSpace=wrap;fontSize=10;fillColor=#666666;align=center;strokeColor=#4D4D4D;fontColor=#ffffff;" vertex="1" parent="1">
                    <mxGeometry x="220" y="300" width="105.5" height="16.88" as="geometry"/>
                </mxCell>
                <mxCell id="59" value="Sign up" style="text;html=1;strokeColor=none;fillColor=none;align=center;verticalAlign=middle;whiteSpace=wrap;rounded=0;" vertex="1" parent="1">
                    <mxGeometry x="243" y="317" width="60" height="30" as="geometry"/>
                </mxCell>
                <mxCell id="60" value="" style="rounded=0;whiteSpace=wrap;html=1;" vertex="1" parent="1">
                    <mxGeometry x="460" y="80" width="260" height="470" as="geometry"/>
                </mxCell>
                <mxCell id="61" value="&lt;h1&gt;Agility Help&lt;/h1&gt;" style="rounded=0;whiteSpace=wrap;html=1;" vertex="1" parent="1">
                    <mxGeometry x="460" y="80" width="260" height="50" as="geometry"/>
                </mxCell>
                <mxCell id="62" value="&lt;p&gt;Home&lt;span style=&quot;white-space: pre&quot;&gt;&#9;&lt;/span&gt;|&lt;span style=&quot;white-space: pre&quot;&gt;&#9;&lt;/span&gt;Log in&lt;span style=&quot;white-space: pre&quot;&gt;&#9;&lt;/span&gt;|&lt;span style=&quot;white-space: pre&quot;&gt;&#9;&lt;/span&gt;Dashboard&lt;/p&gt;" style="rounded=0;whiteSpace=wrap;html=1;" vertex="1" parent="1">
                    <mxGeometry x="460" y="130" width="260" height="30" as="geometry"/>
                </mxCell>
                <mxCell id="63" value="&lt;div&gt;&lt;span&gt;Username&lt;/span&gt;&lt;/div&gt;" style="html=1;shadow=0;dashed=0;shape=mxgraph.bootstrap.rrect;rSize=5;strokeColor=#CED4DA;html=1;whiteSpace=wrap;fillColor=#FFFFFF;fontColor=#7D868C;align=left;spacing=15;spacingLeft=40;fontSize=14;" vertex="1" parent="1">
                    <mxGeometry x="490" y="190" width="210" height="31" as="geometry"/>
                </mxCell>
                <mxCell id="64" value="&lt;div&gt;&lt;span&gt;Password&lt;/span&gt;&lt;/div&gt;" style="html=1;shadow=0;dashed=0;shape=mxgraph.bootstrap.rrect;rSize=5;strokeColor=#CED4DA;html=1;whiteSpace=wrap;fillColor=#FFFFFF;fontColor=#7D868C;align=left;spacing=15;spacingLeft=40;fontSize=14;" vertex="1" parent="1">
                    <mxGeometry x="490" y="240" width="210" height="31" as="geometry"/>
                </mxCell>
                <mxCell id="65" value="Sign up" style="rounded=1;html=1;shadow=0;dashed=0;whiteSpace=wrap;fontSize=10;fillColor=#666666;align=center;strokeColor=#4D4D4D;fontColor=#ffffff;" vertex="1" parent="1">
                    <mxGeometry x="530" y="300" width="105.5" height="16.88" as="geometry"/>
                </mxCell>
                <mxCell id="66" value="Log in" style="text;html=1;strokeColor=none;fillColor=none;align=center;verticalAlign=middle;whiteSpace=wrap;rounded=0;" vertex="1" parent="1">
                    <mxGeometry x="553" y="317" width="60" height="30" as="geometry"/>
                </mxCell>
                <mxCell id="67" value="/login" style="text;html=1;resizable=0;autosize=1;align=center;verticalAlign=middle;points=[];fillColor=none;strokeColor=none;rounded=0;" vertex="1" parent="1">
                    <mxGeometry x="150" y="50" width="40" height="20" as="geometry"/>
                </mxCell>
                <mxCell id="68" value="/signup" style="text;html=1;resizable=0;autosize=1;align=center;verticalAlign=middle;points=[];fillColor=none;strokeColor=none;rounded=0;" vertex="1" parent="1">
                    <mxGeometry x="455" y="50" width="50" height="20" as="geometry"/>
                </mxCell>
            </root>
        </mxGraphModel>
    </diagram>
</mxfile>